<svg width="32" height="32" viewBox="0 0 32 32" fill="none" xmlns="http://www.w3.org/2000/svg">
<path d="M3 26C4.18365 21.9429 7.70441 19 11.8636 19C14.8571 19 17.5198 20.5244 19.2186 22.8914M20.7273 26C20.3955 24.8628 19.8801 23.8132 19.2186 22.8914M29 26C28.2109 23.3748 25.8637 21.4706 23.0909 21.4706C21.6255 21.4706 20.2791 22.0024 19.2186 22.8914M16.7879 11C16.7879 13.7614 14.5832 16 11.8636 16C9.14405 16 6.93939 13.7614 6.93939 11C6.93939 8.23858 9.14405 6 11.8636 6C14.5832 6 16.7879 8.23858 16.7879 11ZM26.3737 15.1176C26.3737 16.9045 24.904 18.3529 23.0909 18.3529C21.2779 18.3529 19.8081 16.9045 19.8081 15.1176C19.8081 13.3308 21.2779 11.8824 23.0909 11.8824C24.904 11.8824 26.3737 13.3308 26.3737 15.1176Z" stroke="black" stroke-width="1.2" stroke-linecap="round"/>
</svg>
